# xmcd
#
# Track frame offsets: 
#        150
#        17488
#        29996
#        47990
#        59995
#        70509
#        84802
#        98408
#        112899
#        132876
#        149145
#
# Disc length: 2245 seconds
#
# Revision: 0
# Processed by: cddbd v1.5.2PL0 Copyright (c) Steve Scherf et al.
# Submitted via: ExactAudioCopy v1.0b1
#
DISCID=9808c30b
DTITLE=Matuška Waldemar a Olga - Niagara
DYEAR=1988
DGENRE=Country
TTITLE0=Nigara
TTITLE1=Zlatokop tom
TTITLE2=Cesta mořem
TTITLE3=Moře hučí
TTITLE4=Mariňák
TTITLE5=Mým domovem je ztichlá putyka
TTITLE6=Rikatádo
TTITLE7=Líbám tě dnes naposledy
TTITLE8=Anita
TTITLE9=Chata na vodě
TTITLE10=Až přijde ta chvíle
EXTD=
EXTT0=
EXTT1=
EXTT2=
EXTT3=
EXTT4=
EXTT5=
EXTT6=
EXTT7=
EXTT8=
EXTT9=
EXTT10=
PLAYORDER=
